<svg width="17" height="13" viewBox="0 0 17 13" fill="none" xmlns="http://www.w3.org/2000/svg">
<path d="M0.944444 13H16.0556C16.575 13 17 12.5125 17 11.9167C17 11.3208 16.575 10.8333 16.0556 10.8333H0.944444C0.425 10.8333 0 11.3208 0 11.9167C0 12.5125 0.425 13 0.944444 13ZM0.944444 7.58333H16.0556C16.575 7.58333 17 7.09583 17 6.5C17 5.90417 16.575 5.41667 16.0556 5.41667H0.944444C0.425 5.41667 0 5.90417 0 6.5C0 7.09583 0.425 7.58333 0.944444 7.58333ZM0 1.08333C0 1.67917 0.425 2.16667 0.944444 2.16667H16.0556C16.575 2.16667 17 1.67917 17 1.08333C17 0.4875 16.575 0 16.0556 0H0.944444C0.425 0 0 0.4875 0 1.08333Z" fill="#2F1640"/>
</svg>
